<!DOCTYPE svg PUBLIC "-//W3C//DTD SVG 1.1//EN" "http://www.w3.org/Graphics/SVG/1.1/DTD/svg11.dtd">
<!-- Uploaded to: SVG Repo, www.svgrepo.com, Transformed by: SVG Repo Mixer Tools -->
<svg fill="#000000" version="1.1" id="Capa_1" xmlns="http://www.w3.org/2000/svg" xmlns:xlink="http://www.w3.org/1999/xlink" width="800px" height="800px" viewBox="0 0 23.16 23.16" xml:space="preserve" stroke="#000000" stroke-width="0.00023165">
<g id="SVGRepo_bgCarrier" stroke-width="0"/>
<g id="SVGRepo_tracerCarrier" stroke-linecap="round" stroke-linejoin="round" stroke="#CCCCCC" stroke-width="0.09265999999999999"/>
<g id="SVGRepo_iconCarrier"> <g> <g> <path d="M17.979,17.579c2.398-0.145,5.064-1.24,5.183-3.943c0.048-1.096-0.333-2.029-1.073-2.628 c-0.57-0.461-1.311-0.71-2.206-0.74c0.005-0.236,0.007-0.475,0.007-0.719c0-0.414-0.336-0.75-0.75-0.75H0.75 C0.336,8.8,0,9.136,0,9.55c0,3.956,0.362,7.929,4.221,9.906H2.104h-0.75v0.75c0,0.91,0.741,1.652,1.653,1.652h2.495 c0.236,0.283,0.588,0.458,0.978,0.458h6.708c0.391,0,0.742-0.175,0.978-0.458h2.495c0.91,0,1.652-0.74,1.652-1.652v-0.75h-0.75 h-1.949C16.566,18.971,17.361,18.359,17.979,17.579z M16.661,21.108h-2.95c-0.041,0.258-0.254,0.458-0.523,0.458H6.48 c-0.269,0-0.482-0.2-0.523-0.458H3.006c-0.499,0-0.903-0.404-0.903-0.902h15.459C17.564,20.704,17.159,21.108,16.661,21.108z M13.627,19.442H6.261C1.502,18.105,0.75,14.519,0.75,9.55h18.389c0,0.516-0.012,1.014-0.031,1.5 c0.177-0.02,0.377-0.034,0.59-0.034c0.625,0,1.357,0.121,1.918,0.575c0.39,0.316,0.844,0.92,0.796,2.013 c-0.108,2.494-3.013,3.205-4.82,3.24C16.762,18.025,15.512,18.913,13.627,19.442z"/> <path d="M21.059,13.546c0.026-0.639-0.216-0.838-0.295-0.901c-0.257-0.21-0.666-0.274-1.06-0.274 c-0.255,0-0.502,0.027-0.694,0.059c-0.113,1.1-0.318,2.1-0.664,2.988C19.398,15.271,21.002,14.837,21.059,13.546z M19.45,14.376 c0.093-0.394,0.171-0.811,0.231-1.254c0.008,0,0.016,0,0.022,0c0.356,0,0.534,0.065,0.583,0.103c0,0.007,0.029,0.091,0.021,0.29 C20.291,13.923,19.904,14.196,19.45,14.376z"/> <path d="M9.505,6.091C9.455,6.357,9.172,6.6,9.077,6.664c-0.299,0.199-0.418,0.584-0.28,0.915c0.118,0.284,0.392,0.463,0.69,0.463 c0.049,0,0.1-0.005,0.15-0.015c0.206-0.042,2.03-0.45,2.583-1.735c0.192-0.445,0.305-1.166-0.256-2.073 c-0.888-1.439-0.872-1.449-0.056-1.997c0.291-0.195,0.407-0.566,0.28-0.893c-0.111-0.292-0.393-0.48-0.698-0.48 c-0.036,0-0.072,0.003-0.109,0.008c-0.234,0.034-2.299,0.376-2.855,1.839C8.199,3.56,8.477,4.532,9.355,5.588 C9.546,5.868,9.515,6.035,9.505,6.091z M11.491,1.599c-1.295,0.869-1.176,1.374-0.164,3.014c1.261,2.043-1.841,2.679-1.841,2.679 s1.375-0.875,0.466-2.159C7.477,2.187,11.491,1.599,11.491,1.599z"/> </g> </g> </g>
</svg>