<svg version="1.1" id="Layer_1" xmlns="http://www.w3.org/2000/svg" xmlns:xlink="http://www.w3.org/1999/xlink" x="0px" y="0px"
	 width="100%" viewBox="0 0 512 512" enable-background="new 0 0 512 512" xml:space="preserve">
<path fill="none" opacity="0.000000" stroke="none"  stroke-opacity="0"
	d="
M1.000000,255.000000 
	C1.000000,170.436035 1.000000,85.872078 1.000000,1.000000 
	C36.353630,1.000000 71.708160,1.000000 107.442009,1.344052 
	C96.864876,8.047162 95.225632,19.611401 103.939377,28.473562 
	C106.114456,30.685686 108.204926,33.036861 109.990967,35.566521 
	C120.857170,50.956871 118.763947,61.894775 107.344818,73.160881 
	C101.507652,78.919823 95.188408,84.307655 90.078674,90.660767 
	C80.807159,102.188347 78.035034,116.073372 80.353447,130.276978 
	C82.946213,146.161392 91.005661,159.514328 102.914162,170.647842 
	C107.930656,175.337875 113.296150,176.082336 119.092674,174.281601 
	C130.023666,170.885834 133.131790,158.320511 125.516441,149.020645 
	C123.127518,146.103287 120.259689,143.548111 118.085770,140.489716 
	C107.438904,125.511124 108.650581,114.391472 121.286057,102.186821 
	C126.823692,96.837997 132.646500,91.690376 137.539383,85.787865 
	C147.402191,73.889862 150.282028,59.443737 147.616348,44.837509 
	C144.350616,26.943478 134.996323,11.965608 120.000000,1.000000 
	C147.687561,1.000000 175.375122,1.000000 203.439484,1.346510 
	C194.247391,6.044236 191.137863,16.817261 197.155838,25.396168 
	C201.245026,31.225464 206.278732,36.484444 209.730972,42.647709 
	C215.615234,53.152863 213.149628,62.324612 205.177307,70.318619 
	C200.328934,75.180176 195.311935,79.885117 190.651886,84.920654 
	C179.349854,97.133278 173.733826,111.216438 175.911621,128.222305 
	C178.120636,145.472092 186.670761,159.179169 198.677628,170.983124 
	C203.973038,176.189026 213.482590,176.475632 218.949524,172.566132 
	C224.553650,168.558517 227.281754,159.813965 223.811462,153.230774 
	C221.283112,148.434433 216.927841,144.636841 213.713196,140.159790 
	C204.709183,127.619827 203.569702,115.939674 215.494812,104.001129 
	C221.170975,98.318573 227.411179,93.090324 232.405960,86.862366 
	C239.475754,78.047066 243.515701,67.794029 244.068695,56.218163 
	C244.698349,43.037437 240.673737,31.073349 233.549606,20.583740 
	C228.563782,13.242610 221.265488,7.472027 215.000000,1.000002 
	C243.020889,1.000000 271.041779,1.000000 299.440155,1.345825 
	C289.548370,4.857257 287.128632,18.818455 293.230255,25.827332 
	C297.063538,30.230633 300.605499,34.905388 304.047180,39.626717 
	C307.424255,44.259361 308.544098,49.599525 308.312988,55.312756 
	C307.910736,65.257065 301.129608,71.332062 294.376007,76.840019 
	C286.088074,83.599335 279.701691,91.607849 275.476868,101.201408 
	C271.518463,110.189919 270.143951,119.550156 271.751190,129.640045 
	C273.832092,142.703445 279.571991,153.859543 287.584167,163.804581 
	C292.263519,169.612762 297.195038,176.097061 306.590454,175.127151 
	C312.328094,174.534836 316.567474,172.433197 319.130646,167.321579 
	C322.043793,161.512100 322.089233,155.774292 317.921417,150.476517 
	C314.795502,146.503067 311.207642,142.866669 308.332123,138.728180 
	C302.796753,130.761581 298.393036,119.300568 307.013153,109.481194 
	C313.037140,102.619118 319.830292,96.431511 325.841583,89.559273 
	C336.694641,77.151863 342.046021,62.925629 339.018982,46.181385 
	C335.624939,27.407234 326.628815,12.160419 311.000000,1.000000 
	C378.297363,1.000000 445.594727,1.000000 512.940857,1.000000 
	C512.940857,171.666672 512.940857,342.333344 512.940857,513.000000 
	C478.233582,513.000000 443.585449,513.000000 408.560547,512.653442 
	C417.869446,507.902405 420.748474,497.926331 415.032288,489.038879 
	C411.412018,483.410217 405.724243,482.121735 399.829620,482.077148 
	C375.507904,481.893036 351.183929,482.003662 326.860809,481.988586 
	C325.699036,481.987885 324.537384,481.821289 322.773315,481.685577 
	C355.464783,461.284851 380.341217,434.702332 398.014771,400.002502 
	C413.736633,400.002502 429.852631,400.783203 445.859253,399.794159 
	C463.690186,398.692413 478.579590,389.903717 490.880188,377.401184 
	C502.840576,365.244476 510.157257,350.225616 511.840759,333.219574 
	C513.697021,314.468597 510.257599,296.536163 499.208038,280.759644 
	C483.692017,258.605896 462.469116,247.032227 435.220520,247.000946 
	C429.601715,246.994492 423.982910,247.000000 417.999969,247.000000 
	C417.999969,243.137680 418.218140,239.662689 417.955780,236.224365 
	C417.360321,228.421753 412.522400,220.861771 402.636719,220.880051 
	C298.014221,221.073654 193.391296,221.000000 88.768478,221.000000 
	C64.611931,221.000000 40.455349,221.022278 16.298885,220.977768 
	C12.344296,220.970490 9.065815,222.030212 6.321353,225.097321 
	C3.465935,228.288422 1.916047,231.671890 1.915294,236.073624 
	C1.914215,242.382477 1.333333,248.691208 1.000000,255.000000 
z"/>
<path fill="#000000" opacity="1.000000" stroke="none" 
	d="
M1.000000,255.468658 
	C1.333333,248.691208 1.914215,242.382477 1.915294,236.073624 
	C1.916047,231.671890 3.465935,228.288422 6.321353,225.097321 
	C9.065815,222.030212 12.344296,220.970490 16.298885,220.977768 
	C40.455349,221.022278 64.611931,221.000000 88.768478,221.000000 
	C193.391296,221.000000 298.014221,221.073654 402.636719,220.880051 
	C412.522400,220.861771 417.360321,228.421753 417.955780,236.224365 
	C418.218140,239.662689 417.999969,243.137680 417.999969,247.000000 
	C423.982910,247.000000 429.601715,246.994492 435.220520,247.000946 
	C462.469116,247.032227 483.692017,258.605896 499.208038,280.759644 
	C510.257599,296.536163 513.697021,314.468597 511.840759,333.219574 
	C510.157257,350.225616 502.840576,365.244476 490.880188,377.401184 
	C478.579590,389.903717 463.690186,398.692413 445.859253,399.794159 
	C429.852631,400.783203 413.736633,400.002502 398.014771,400.002502 
	C380.341217,434.702332 355.464783,461.284851 322.773315,481.685577 
	C324.537384,481.821289 325.699036,481.987885 326.860809,481.988586 
	C351.183929,482.003662 375.507904,481.893036 399.829620,482.077148 
	C405.724243,482.121735 411.412018,483.410217 415.032288,489.038879 
	C420.748474,497.926331 417.869446,507.902405 408.091858,512.653442 
	C276.312439,513.000000 144.624878,513.000000 12.372307,512.649414 
	C6.784183,510.830536 2.459908,505.181610 1.954186,500.184052 
	C0.777293,488.553833 8.839809,482.005432 19.429127,482.001770 
	C37.914440,481.995392 56.399750,482.000000 74.885063,482.000000 
	C81.771896,482.000000 88.658730,482.000000 95.752213,482.000000 
	C87.525764,475.589050 79.236015,469.938721 71.918114,463.228516 
	C61.935406,454.074860 51.866974,444.788696 43.328384,434.339294 
	C30.679649,418.860077 20.822004,401.510925 13.896580,382.580414 
	C8.386310,367.518219 4.165724,352.181488 3.068429,336.155396 
	C2.368839,325.937836 2.353981,315.673981 1.959731,305.433685 
	C1.928071,304.611359 1.333165,303.810730 1.000000,303.000000 
	C1.000000,287.312439 1.000000,271.624878 1.000000,255.468658 
M386.000000,326.471466 
	C386.000000,301.775360 386.000000,277.079254 386.000000,252.358582 
	C268.748962,252.358582 150.912323,252.358582 33.000069,252.358582 
	C33.000069,276.708832 32.695637,300.706543 33.167988,324.688995 
	C33.329605,332.894806 35.050270,341.143463 36.740997,349.229889 
	C39.975086,364.697998 45.710320,379.229370 53.447296,393.086609 
	C64.200348,412.345856 78.215492,428.841827 95.286583,442.524597 
	C109.233437,453.703247 124.766769,462.493591 141.484131,469.177704 
	C158.702789,476.062225 176.575836,480.534241 194.910202,481.699585 
	C208.473663,482.561676 222.241623,481.027832 235.865845,479.916168 
	C255.357483,478.325806 273.598145,471.937439 291.005859,463.391296 
	C308.642273,454.732849 324.436157,443.442169 338.334717,429.341187 
	C353.565918,413.888062 365.688141,396.549561 374.097504,376.553986 
	C380.720795,360.805450 384.780884,344.470001 386.000000,326.471466 
M416.968201,336.127930 
	C416.657898,336.711243 416.167267,337.264465 416.064148,337.882355 
	C414.289612,348.515320 412.562836,359.156281 410.956940,368.991425 
	C421.341888,368.991425 432.613800,370.363586 443.424072,368.712799 
	C467.767487,364.995453 485.251709,339.862457 480.052002,315.188354 
	C477.269257,301.983459 470.007050,292.383942 458.904114,284.875793 
	C446.169708,276.264435 432.169586,278.270996 416.997772,278.020386 
	C416.997772,297.414581 416.997772,316.304810 416.968201,336.127930 
z"/>
<path fill="#000000" opacity="1.000000" stroke="none" 
	d="
M214.541931,1.000002 
	C221.265488,7.472027 228.563782,13.242610 233.549606,20.583740 
	C240.673737,31.073349 244.698349,43.037437 244.068695,56.218163 
	C243.515701,67.794029 239.475754,78.047066 232.405960,86.862366 
	C227.411179,93.090324 221.170975,98.318573 215.494812,104.001129 
	C203.569702,115.939674 204.709183,127.619827 213.713196,140.159790 
	C216.927841,144.636841 221.283112,148.434433 223.811462,153.230774 
	C227.281754,159.813965 224.553650,168.558517 218.949524,172.566132 
	C213.482590,176.475632 203.973038,176.189026 198.677628,170.983124 
	C186.670761,159.179169 178.120636,145.472092 175.911621,128.222305 
	C173.733826,111.216438 179.349854,97.133278 190.651886,84.920654 
	C195.311935,79.885117 200.328934,75.180176 205.177307,70.318619 
	C213.149628,62.324612 215.615234,53.152863 209.730972,42.647709 
	C206.278732,36.484444 201.245026,31.225464 197.155838,25.396168 
	C191.137863,16.817261 194.247391,6.044236 203.908142,1.346510 
	C207.361282,1.000000 210.722580,1.000000 214.541931,1.000002 
z"/>
<path fill="#000000" opacity="1.000000" stroke="none" 
	d="
M310.541931,1.000000 
	C326.628815,12.160419 335.624939,27.407234 339.018982,46.181385 
	C342.046021,62.925629 336.694641,77.151863 325.841583,89.559273 
	C319.830292,96.431511 313.037140,102.619118 307.013153,109.481194 
	C298.393036,119.300568 302.796753,130.761581 308.332123,138.728180 
	C311.207642,142.866669 314.795502,146.503067 317.921417,150.476517 
	C322.089233,155.774292 322.043793,161.512100 319.130646,167.321579 
	C316.567474,172.433197 312.328094,174.534836 306.590454,175.127151 
	C297.195038,176.097061 292.263519,169.612762 287.584167,163.804581 
	C279.571991,153.859543 273.832092,142.703445 271.751190,129.640045 
	C270.143951,119.550156 271.518463,110.189919 275.476868,101.201408 
	C279.701691,91.607849 286.088074,83.599335 294.376007,76.840019 
	C301.129608,71.332062 307.910736,65.257065 308.312988,55.312756 
	C308.544098,49.599525 307.424255,44.259361 304.047180,39.626717 
	C300.605499,34.905388 297.063538,30.230633 293.230255,25.827332 
	C287.128632,18.818455 289.548370,4.857257 299.908813,1.345825 
	C303.361298,1.000000 306.722565,1.000000 310.541931,1.000000 
z"/>
<path fill="#000000" opacity="1.000000" stroke="none" 
	d="
M119.539368,1.000000 
	C134.996323,11.965608 144.350616,26.943478 147.616348,44.837509 
	C150.282028,59.443737 147.402191,73.889862 137.539383,85.787865 
	C132.646500,91.690376 126.823692,96.837997 121.286057,102.186821 
	C108.650581,114.391472 107.438904,125.511124 118.085770,140.489716 
	C120.259689,143.548111 123.127518,146.103287 125.516441,149.020645 
	C133.131790,158.320511 130.023666,170.885834 119.092674,174.281601 
	C113.296150,176.082336 107.930656,175.337875 102.914162,170.647842 
	C91.005661,159.514328 82.946213,146.161392 80.353447,130.276978 
	C78.035034,116.073372 80.807159,102.188347 90.078674,90.660767 
	C95.188408,84.307655 101.507652,78.919823 107.344818,73.160881 
	C118.763947,61.894775 120.857170,50.956871 109.990967,35.566521 
	C108.204926,33.036861 106.114456,30.685686 103.939377,28.473562 
	C95.225632,19.611401 96.864876,8.047162 107.910667,1.344052 
	C111.692909,1.000000 115.385818,1.000000 119.539368,1.000000 
z"/>
<path fill="#FFFFFF" opacity="1.000000" stroke="none" 
	d="
M1.000000,303.468658 
	C1.333165,303.810730 1.928071,304.611359 1.959731,305.433685 
	C2.353981,315.673981 2.368839,325.937836 3.068429,336.155396 
	C4.165724,352.181488 8.386310,367.518219 13.896580,382.580414 
	C20.822004,401.510925 30.679649,418.860077 43.328384,434.339294 
	C51.866974,444.788696 61.935406,454.074860 71.918114,463.228516 
	C79.236015,469.938721 87.525764,475.589050 95.752213,482.000000 
	C88.658730,482.000000 81.771896,482.000000 74.885063,482.000000 
	C56.399750,482.000000 37.914440,481.995392 19.429127,482.001770 
	C8.839809,482.005432 0.777293,488.553833 1.954186,500.184052 
	C2.459908,505.181610 6.784183,510.830536 11.903649,512.649414 
	C8.340606,513.000000 4.681211,513.000000 1.000000,513.000000 
	C1.000000,443.312439 1.000000,373.624878 1.000000,303.468658 
z"/>
<path fill="#FFFFFF" opacity="1.000000" stroke="none" 
	d="
M386.000000,326.950256 
	C384.780884,344.470001 380.720795,360.805450 374.097504,376.553986 
	C365.688141,396.549561 353.565918,413.888062 338.334717,429.341187 
	C324.436157,443.442169 308.642273,454.732849 291.005859,463.391296 
	C273.598145,471.937439 255.357483,478.325806 235.865845,479.916168 
	C222.241623,481.027832 208.473663,482.561676 194.910202,481.699585 
	C176.575836,480.534241 158.702789,476.062225 141.484131,469.177704 
	C124.766769,462.493591 109.233437,453.703247 95.286583,442.524597 
	C78.215492,428.841827 64.200348,412.345856 53.447296,393.086609 
	C45.710320,379.229370 39.975086,364.697998 36.740997,349.229889 
	C35.050270,341.143463 33.329605,332.894806 33.167988,324.688995 
	C32.695637,300.706543 33.000069,276.708832 33.000069,252.358582 
	C150.912323,252.358582 268.748962,252.358582 386.000000,252.358582 
	C386.000000,277.079254 386.000000,301.775360 386.000000,326.950256 
z"/>
<path fill="#FFFFFF" opacity="1.000000" stroke="none" 
	d="
M416.982971,335.661499 
	C416.997772,316.304810 416.997772,297.414581 416.997772,278.020386 
	C432.169586,278.270996 446.169708,276.264435 458.904114,284.875793 
	C470.007050,292.383942 477.269257,301.983459 480.052002,315.188354 
	C485.251709,339.862457 467.767487,364.995453 443.424072,368.712799 
	C432.613800,370.363586 421.341888,368.991425 410.956940,368.991425 
	C412.562836,359.156281 414.289612,348.515320 416.064148,337.882355 
	C416.167267,337.264465 416.657898,336.711243 416.982971,335.661499 
z"/>
</svg>